<svg version="1.1" id="Layer_1" xmlns="http://www.w3.org/2000/svg" xmlns:xlink="http://www.w3.org/1999/xlink" x="0px" y="0px"
	 width="100%" viewBox="0 0 1024 1024" enable-background="new 0 0 1024 1024" xml:space="preserve">
<path fill="#000000" opacity="1.000000" stroke="none" 
	d="
M1025.000000,483.000000 
	C1025.000000,503.020905 1025.000000,523.041809 1024.956055,543.938843 
	C1024.087280,553.240784 1023.288391,561.669250 1022.432739,570.091980 
	C1018.870361,605.159119 1011.342468,639.382324 1000.305847,672.832275 
	C971.912720,758.886780 924.100830,832.503967 857.070862,893.308655 
	C806.145569,939.504333 748.044006,974.143555 683.014038,996.932312 
	C646.092773,1009.870789 608.241333,1018.551514 569.300720,1022.425415 
	C560.535156,1023.297485 551.766968,1024.142456 543.000000,1025.000000 
	C522.645752,1025.000000 502.291534,1025.000000 481.088593,1024.854004 
	C460.528259,1022.941711 440.863586,1020.992310 421.338501,1017.489563 
	C357.294586,1006.000244 297.700409,983.071838 242.572495,948.595947 
	C164.274597,899.630005 103.330696,834.397583 59.947563,752.842346 
	C30.951410,698.332947 12.511362,640.426025 4.631446,579.191284 
	C3.126814,567.498718 2.195708,555.732300 1.000000,544.000000 
	C1.000000,523.645752 1.000000,503.291534 1.018658,482.060059 
	C1.249840,480.045776 1.586229,478.916321 1.656282,477.770630 
	C2.682079,460.994171 4.708108,444.346283 7.503883,427.767822 
	C20.075598,353.219910 47.521549,284.632233 90.555161,222.503769 
	C151.734375,134.178162 232.907303,71.151070 333.244781,32.860332 
	C370.393982,18.683475 408.752594,9.267473 448.269714,4.465999 
	C459.832520,3.061076 471.465637,2.561800 483.000000,1.000000 
	C503.020905,1.000000 523.041809,1.000000 543.916016,1.129147 
	C545.425720,1.362631 546.078735,1.525876 546.738892,1.562871 
	C583.782410,3.638771 620.239563,9.540598 655.638794,20.561188 
	C821.372375,72.157776 935.213684,179.103012 996.261536,341.724792 
	C1010.116577,378.632324 1018.229858,417.024506 1022.421448,456.222870 
	C1023.374817,465.138550 1024.145264,474.073761 1025.000000,483.000000 
M818.242310,470.526062 
	C800.839539,542.839661 762.876160,598.983887 692.820190,629.814941 
	C688.676819,631.638428 687.351379,634.462952 687.283875,638.794678 
	C687.044678,654.136353 687.238342,669.496582 688.574158,684.744629 
	C689.686035,697.437866 687.979858,695.364868 699.454773,698.526062 
	C700.899231,698.923950 702.356262,699.278809 703.790894,699.708923 
	C713.616333,702.654846 720.636108,708.550171 724.594910,718.277771 
	C733.445679,740.026001 742.674622,761.620239 751.554871,783.356750 
	C753.556213,788.255554 756.487305,791.580811 761.338501,793.969727 
	C796.162781,811.118530 830.893738,828.457947 865.571960,845.900452 
	C869.349854,847.800598 871.792725,847.495483 874.638916,844.344604 
	C885.369690,832.465210 895.756348,820.314819 905.340454,807.484985 
	C965.679749,726.710571 997.932251,635.730042 1003.454163,535.283325 
	C1004.971558,507.680634 1003.548767,480.088745 999.956055,452.550720 
	C994.192566,408.374512 983.496582,365.550964 966.614075,324.383331 
	C928.419861,231.247360 868.045044,156.035507 783.341431,101.161362 
	C710.453735,53.941975 630.332947,27.408524 543.718506,21.647892 
	C498.852142,18.663874 454.097290,21.776960 410.123505,31.665812 
	C302.484863,55.871655 211.894882,109.051048 139.961990,192.995758 
	C66.877754,278.284058 29.676079,378.104614 22.586535,489.489532 
	C20.028637,529.677063 23.947460,569.633423 31.870033,609.153076 
	C45.149464,675.394043 71.384743,736.110779 109.579147,791.740540 
	C136.957794,831.617188 170.097748,866.088562 207.572479,896.548157 
	C211.966339,900.119568 215.403183,900.427612 220.463028,897.780701 
	C240.244431,887.432678 260.380615,877.764771 280.207031,867.500427 
	C304.319733,855.016907 328.683685,842.989624 351.979095,828.974182 
	C354.799225,827.277588 356.899384,825.132935 358.304504,822.147095 
	C360.503174,817.475037 362.827393,812.859619 365.204102,808.275024 
	C366.370026,806.025940 366.479431,804.328308 363.972748,802.855042 
	C349.976166,794.628662 342.392181,781.573242 336.842255,766.906433 
	C332.585175,755.656250 330.477844,743.806091 326.826965,732.402893 
	C322.602173,719.207275 315.711853,707.093201 310.843750,694.157166 
	C309.105804,689.539001 306.977753,686.391724 301.679901,684.915771 
	C294.579681,682.937622 290.111481,675.606567 291.072113,669.471191 
	C292.187378,669.868103 293.249054,670.275696 294.329865,670.624023 
	C296.207428,671.228943 298.211029,672.397278 300.010986,670.834900 
	C302.116089,669.007751 300.699158,666.783325 300.090515,664.816467 
	C298.269531,658.931641 296.344940,653.077881 294.390472,647.235535 
	C287.998688,628.129028 281.573547,609.017944 278.802979,588.966125 
	C278.282166,585.197083 276.799561,583.296570 273.256195,582.443237 
	C266.120209,580.724609 260.047546,576.957275 254.679535,572.080383 
	C238.710938,557.572754 232.507278,538.495361 229.796234,517.913147 
	C229.297409,514.126038 228.631958,511.421326 224.401459,510.096252 
	C220.241165,508.793182 220.761093,504.662598 220.650406,501.170105 
	C220.554443,498.142212 221.640884,495.777405 224.757355,495.207520 
	C228.322601,494.555603 229.564575,492.366272 230.264999,489.112518 
	C231.947052,481.298553 235.091110,474.208435 241.629120,469.123810 
	C243.340408,467.792938 243.628204,466.317963 242.879593,464.308167 
	C238.043198,451.324310 236.030228,437.552856 231.766098,424.398865 
	C220.876129,390.805542 214.658539,356.317657 212.896332,321.076508 
	C211.623734,295.626862 215.181198,270.547668 220.774002,245.824463 
	C232.682190,193.183975 259.172699,149.562531 302.938965,117.343475 
	C335.622864,93.282852 372.980988,81.135117 412.882996,75.487808 
	C445.080994,70.930847 477.107819,72.193726 508.804077,78.097107 
	C585.181519,92.322281 653.236267,124.329872 710.882812,176.852982 
	C773.252014,233.679031 813.718201,302.400024 822.538757,387.732391 
	C825.385376,415.270203 823.869568,442.575684 818.242310,470.526062 
M603.492493,565.053650 
	C604.049561,562.452026 604.453186,559.805237 605.202637,557.260315 
	C606.143494,554.065552 605.398376,551.463013 603.355835,548.919922 
	C589.585266,531.774597 575.806274,514.635010 562.204346,497.356384 
	C559.680176,494.149902 557.263062,493.857544 553.609985,495.076111 
	C546.692444,497.383789 540.062805,500.915497 532.633667,501.280365 
	C528.465698,501.485107 527.237000,503.233093 527.272827,507.190369 
	C527.353882,516.165833 527.768372,525.135864 526.366028,534.107422 
	C522.374817,559.640625 506.825470,575.992065 481.522736,580.443665 
	C463.434967,583.625854 446.175018,580.563599 430.498260,571.207031 
	C403.107025,554.858643 385.244781,531.312744 379.451752,499.517792 
	C378.425079,493.882996 375.760620,490.832794 370.463013,489.732147 
	C367.339325,489.083130 364.188568,489.208191 361.039490,489.797272 
	C357.707428,490.420593 356.203094,492.245544 356.406342,495.709686 
	C356.801147,502.438904 355.209869,508.927399 353.724060,515.418457 
	C348.261322,539.283691 341.513214,562.788513 333.519836,585.920105 
	C331.152344,592.771179 332.600342,598.235474 337.491669,603.236633 
	C341.779602,607.620911 346.749023,610.863770 352.614563,612.609741 
	C361.058929,615.123474 369.903839,616.083069 378.197754,619.272705 
	C379.945923,619.944946 382.246918,619.866516 384.117920,619.412109 
	C391.645630,617.584167 398.790924,618.942505 405.513794,622.145508 
	C420.380585,629.228577 435.871338,633.809143 452.247498,635.788574 
	C461.443695,636.900085 468.765686,641.509338 473.531128,649.857849 
	C475.834351,653.892761 478.499054,657.770874 481.390076,661.410156 
	C486.866028,668.303467 493.957550,670.277649 502.377258,667.545654 
	C504.194641,666.955933 505.898224,665.634644 508.592316,666.396179 
	C507.316040,671.362183 504.465637,675.011230 500.459045,677.828308 
	C489.042999,685.854980 474.882355,684.328613 462.905151,673.939636 
	C460.070007,671.480469 457.773560,668.223816 453.491913,667.104248 
	C449.648804,673.411682 443.108215,674.850464 436.580597,676.359436 
	C428.994751,678.112976 421.310822,677.430908 413.679657,677.155396 
	C404.448669,676.822144 395.403046,677.295044 386.548096,680.219971 
	C381.230499,681.976440 375.661835,682.221191 370.269440,680.806824 
	C363.092377,678.924377 356.125031,677.831848 348.671539,679.843506 
	C343.249725,681.306824 337.543457,677.366150 336.593628,672.665405 
	C335.755341,668.516785 338.388000,665.827332 342.269287,667.410645 
	C345.803772,668.852478 349.063660,668.706299 352.462891,667.592041 
	C356.930817,666.127625 361.389008,666.436218 365.734009,667.855713 
	C373.283051,670.321838 380.716949,670.232910 388.311096,667.945618 
	C396.045441,665.616089 403.904877,665.093506 412.010620,666.384277 
	C418.237671,667.375916 424.642212,667.397644 430.954224,666.588013 
	C433.288391,666.288513 435.888062,666.197632 437.435822,663.841064 
	C437.000031,663.371399 436.806824,662.959961 436.548981,662.914490 
	C422.090271,660.361023 408.379944,655.023071 394.171967,651.546448 
	C388.679108,650.202332 383.297791,650.476562 378.078033,652.891907 
	C374.819275,654.399841 371.345795,655.182861 367.900879,653.777222 
	C360.680634,650.831055 354.645081,653.300659 348.738251,657.356384 
	C340.403595,663.079163 333.493561,670.125427 327.541138,678.297791 
	C325.389526,681.251770 324.784454,683.543945 326.380493,686.857788 
	C334.112213,702.910767 341.634521,719.064514 349.339874,735.130371 
	C351.212341,739.034485 353.495209,742.750610 356.695129,745.770264 
	C361.012360,749.844055 366.163666,749.877136 369.726654,745.209595 
	C374.866455,738.476440 377.543488,729.730286 369.771667,722.283997 
	C368.208221,720.786011 366.647614,719.284607 365.107422,717.762878 
	C359.485046,712.208008 358.190369,704.556213 355.048309,697.254089 
	C377.233643,706.093018 398.930420,703.757568 421.033142,695.598511 
	C420.081879,700.485229 417.247864,703.447205 416.760590,707.258545 
	C415.913849,713.881470 412.398315,718.960632 407.650421,723.439148 
	C401.340851,729.390930 401.059845,731.701904 405.116333,739.526855 
	C409.896698,748.748169 421.136627,753.122681 433.806213,750.199890 
	C452.010315,746.000305 465.397125,735.666748 472.617035,718.147400 
	C474.338379,713.970459 476.598846,712.764404 480.653473,714.804993 
	C485.359344,717.173523 490.251282,717.298889 495.215942,715.663696 
	C505.370087,712.319519 511.275635,704.744751 515.196899,695.323181 
	C519.048401,686.069275 520.819702,676.178772 523.671997,666.616699 
	C526.189392,658.177368 530.736328,651.240967 537.878113,646.042480 
	C543.400696,642.022827 548.937134,638.022095 554.432739,633.965942 
	C578.060547,616.526855 595.274353,594.485291 603.492493,565.053650 
M464.481110,963.535950 
	C465.207947,964.288391 464.957397,965.911682 466.893158,965.925232 
	C473.125946,952.055237 479.771149,938.254028 485.547913,924.098450 
	C490.126831,912.878113 497.294403,904.778137 508.204620,899.397278 
	C523.957825,891.627991 538.465820,881.953552 551.024353,869.469299 
	C559.526917,861.016907 568.434448,852.972229 577.148499,844.732056 
	C609.711914,813.939758 642.083008,782.968140 671.371826,748.939087 
	C675.420105,744.235596 676.150513,739.577698 675.304932,733.819824 
	C673.542603,721.818176 671.740967,709.790527 670.794373,697.707825 
	C669.077759,675.795593 668.145142,653.829346 668.791931,631.832764 
	C668.869995,629.177185 668.080688,627.062378 666.275635,625.061035 
	C657.909058,615.784729 649.662903,606.399902 641.349060,597.075806 
	C640.281250,595.878296 639.492310,594.224365 637.416016,594.247131 
	C635.625671,595.609375 635.667053,597.723328 635.477173,599.641418 
	C634.690552,607.584900 634.287964,615.575012 633.246704,623.482544 
	C631.337585,637.980652 629.456726,652.542114 624.567871,666.411743 
	C616.684692,688.776123 601.699585,706.104736 584.081787,721.257751 
	C556.644165,744.856995 527.170837,765.795715 497.307892,786.165771 
	C477.999023,799.336670 457.278381,809.399536 433.720154,812.325012 
	C429.635864,812.832214 429.870026,815.272949 430.519928,818.035278 
	C432.537811,826.611755 434.873535,835.119324 436.677155,843.739136 
	C439.798431,858.656433 444.781708,873.333191 443.312592,888.914246 
	C442.800995,894.339783 441.390228,899.604248 443.439667,905.145325 
	C450.539398,924.340820 456.581940,943.918945 464.481110,963.535950 
M477.230835,990.575195 
	C476.120941,994.117798 473.564362,997.205750 473.615479,1002.025269 
	C553.501343,1008.273621 630.054199,995.722595 703.586121,964.791321 
	C760.633606,940.794189 811.515503,907.423645 855.278198,863.938843 
	C854.426697,861.276550 852.732422,860.753357 851.294739,860.012878 
	C819.313599,843.540649 787.077393,827.581055 754.712769,811.876587 
	C751.330627,810.235474 749.364746,810.638733 747.435181,813.976257 
	C742.435364,822.625000 737.208496,831.144897 731.964966,839.650024 
	C705.995605,881.772949 678.198181,922.687561 650.005127,963.336487 
	C644.701782,970.982910 639.993469,971.689941 632.289429,966.391174 
	C622.265442,959.496765 612.533936,952.185547 603.227905,944.361694 
	C586.017334,929.892334 569.005188,915.186890 551.922791,900.565247 
	C549.852051,898.792908 548.069885,897.002747 545.046204,899.326721 
	C536.161438,906.155212 526.256287,911.377686 516.333130,916.453491 
	C510.168274,919.606995 506.327728,924.149536 503.636566,930.425903 
	C495.107819,950.316406 486.228210,970.056458 477.230835,990.575195 
M697.294617,423.139709 
	C683.010925,399.743073 666.010254,378.372955 647.268372,357.616577 
	C650.271545,357.137268 651.327454,358.628601 652.550598,359.608765 
	C663.209412,368.150818 673.758667,376.830933 684.481201,385.291748 
	C693.510559,392.416565 702.691101,399.360840 713.863708,402.959808 
	C718.290222,404.385681 722.143433,403.425812 725.214050,399.996002 
	C728.380615,396.458984 727.745056,392.632996 725.428467,388.952057 
	C721.171387,382.187866 717.155518,375.239136 712.460693,368.788330 
	C674.206238,316.226715 623.229004,280.211853 563.882996,255.250137 
	C530.834839,241.349625 496.260712,233.133194 460.791229,228.524643 
	C449.630096,227.074493 438.417328,226.002365 425.811890,225.833557 
	C428.446259,227.121506 429.881042,227.871063 431.353973,228.536148 
	C489.298431,254.700485 542.365784,288.476776 590.110107,330.501068 
	C629.256897,364.957825 663.324768,403.749817 689.939880,448.784698 
	C708.192566,479.669830 722.123230,512.299500 728.875549,547.715637 
	C730.137085,554.333008 730.912231,561.043091 731.999146,568.293091 
	C732.711365,567.453552 733.012939,567.243958 733.101257,566.966614 
	C733.352722,566.176880 733.559875,565.367432 733.709595,564.552002 
	C737.097839,546.093262 735.679932,527.759216 732.123352,509.511200 
	C726.124756,478.733734 713.809143,450.476074 697.294617,423.139709 
M618.574951,931.886841 
	C623.841553,935.964050 629.175720,939.957886 634.348022,944.151367 
	C637.203552,946.466431 638.953796,946.179016 641.095581,943.032166 
	C672.947998,896.233704 705.128967,849.653870 733.411072,800.538635 
	C735.524109,796.869141 735.878906,793.686646 734.213867,789.755859 
	C725.644470,769.526062 717.281128,749.209106 708.831116,728.928711 
	C708.416321,727.933228 708.296753,726.574829 706.168701,726.688660 
	C703.918884,735.169617 699.411560,742.700012 694.253418,749.891907 
	C684.620667,763.322693 673.518555,775.512390 662.247192,787.536987 
	C633.070007,818.664062 601.918823,847.766663 570.540161,876.634155 
	C567.920654,879.044067 564.825867,881.133057 563.122559,884.860107 
	C581.538452,900.415466 599.169495,916.642456 618.574951,931.886841 
M370.990265,456.428589 
	C378.182190,456.018341 385.374115,455.608093 392.746277,455.187561 
	C388.457245,442.763245 390.264832,438.331787 402.434143,434.213257 
	C424.682373,426.683685 447.443420,421.083740 470.685669,417.448242 
	C475.699066,416.664062 480.816010,417.617401 486.097748,416.644714 
	C485.697968,415.403137 485.632416,414.696167 485.277344,414.193878 
	C484.318054,412.837006 483.288422,411.521027 482.194092,410.269806 
	C464.089386,389.569946 446.160034,368.728516 430.671936,345.936890 
	C429.043976,343.541290 427.042480,342.233490 424.127167,342.039215 
	C418.483978,341.663147 412.860199,340.935577 407.213654,340.680786 
	C381.996216,339.542847 356.947968,340.636261 332.283112,346.626312 
	C328.622070,347.515411 326.117004,349.466309 324.280548,352.758575 
	C320.548676,359.448700 316.424652,365.920990 312.723602,372.627289 
	C303.704590,388.969849 295.158417,405.545532 289.060303,423.258972 
	C288.208374,425.733704 287.104370,428.254913 291.313049,428.652802 
	C300.200653,429.493073 308.373016,432.998932 316.808167,435.535889 
	C327.200500,438.661438 335.375793,444.431824 339.938080,454.584564 
	C340.973633,456.889099 342.599365,457.837708 345.095795,457.505829 
	C353.383118,456.404205 361.734802,456.857727 370.990265,456.428589 
M256.321228,368.986237 
	C274.444061,314.361664 304.544281,266.291565 337.849548,219.908691 
	C332.425659,237.968170 324.007935,254.802338 317.257324,272.314850 
	C345.486023,237.062057 370.972076,199.918961 398.197296,162.431580 
	C398.762939,166.057724 397.712830,167.447403 397.023041,168.915619 
	C379.826080,205.518326 358.635010,239.776016 335.900818,273.136230 
	C319.578705,297.087372 302.464264,320.518158 288.166168,345.803802 
	C272.020813,374.356201 260.300446,404.421265 256.846497,437.295288 
	C256.109741,444.307587 257.602692,450.989563 261.244476,457.268219 
	C262.921570,451.667419 263.879272,446.024506 265.162018,440.456390 
	C272.166412,410.052246 286.402252,382.745728 301.683685,355.920380 
	C317.787750,327.651031 336.613983,301.134644 354.836121,274.240509 
	C377.039246,241.470749 395.208344,206.404938 414.040863,171.699677 
	C429.471466,143.263596 447.291199,116.620552 473.121613,96.288567 
	C473.847076,95.717499 474.841888,95.110313 474.166412,92.826691 
	C463.577820,92.505127 452.731384,89.428642 442.318085,96.388916 
	C428.293549,105.762947 416.603363,117.486183 406.024841,130.462662 
	C391.686523,148.051117 378.857635,166.724091 366.294525,185.592499 
	C365.412872,186.916641 364.918579,188.927689 362.586792,189.117538 
	C362.352661,186.184601 363.765930,184.023926 364.693115,181.781357 
	C378.167694,149.191299 395.386200,119.040985 422.129181,94.904045 
	C413.127197,93.340996 405.625458,95.302536 399.061035,100.903793 
	C388.460297,109.949112 379.645203,120.626831 371.809570,132.047180 
	C337.373291,182.237579 305.909576,234.264847 277.110992,287.868866 
	C261.526062,316.877777 249.184875,347.211517 243.799637,380.001038 
	C242.251556,389.426880 242.029221,398.620972 246.550369,408.374847 
	C249.267746,394.760223 252.219360,382.137207 256.321228,368.986237 
M450.113953,979.305725 
	C444.625122,961.765320 437.301361,945.466370 422.541931,933.331909 
	C409.454010,922.571594 395.157318,913.100769 384.633240,899.449768 
	C382.988831,897.316895 381.328400,897.619019 379.681183,899.478882 
	C378.576904,900.725708 377.462341,901.963806 376.332916,903.187866 
	C363.910095,916.651123 351.838776,930.446777 338.571075,943.111145 
	C334.960083,946.558044 330.814850,947.905823 326.323517,945.278198 
	C322.015320,942.757629 321.370697,938.828613 322.425354,934.005737 
	C326.554199,915.124451 332.164215,896.676697 338.101349,878.312439 
	C340.436523,871.089355 342.699310,863.842834 345.456421,855.152893 
	C307.078003,875.797546 269.118317,893.954773 231.694046,913.216980 
	C233.046005,915.809021 234.613998,916.526367 235.966110,917.451965 
	C300.291840,961.486389 371.149017,988.602966 448.307587,999.380981 
	C452.827576,1000.012329 454.269684,998.707825 453.480377,994.192444 
	C452.651001,989.447998 451.435547,984.770935 450.113953,979.305725 
M585.387268,120.229698 
	C561.569824,110.036522 536.673889,103.355415 511.517029,97.514488 
	C506.744781,96.406464 502.538635,97.207092 498.201172,99.715942 
	C479.766052,110.379120 465.667969,125.480911 453.413300,142.549667 
	C452.563599,143.733170 451.516205,144.957031 452.896973,147.673096 
	C475.711731,140.786896 499.384735,138.675568 523.392761,139.683411 
	C546.339783,140.646698 588.032471,149.650970 592.726990,155.161041 
	C591.622986,155.161041 590.812439,155.276001 590.044250,155.144333 
	C565.998779,151.022690 541.853027,149.407639 517.452148,151.189606 
	C489.784119,153.210159 463.198059,159.109039 437.992310,170.976929 
	C432.574066,173.528091 430.478638,177.973907 427.615234,184.433090 
	C488.491577,165.271927 548.823853,161.457275 609.763672,176.612335 
	C671.075500,191.859909 721.564270,224.908432 763.987427,271.166412 
	C752.969238,251.569992 739.693481,233.698715 724.819092,217.031433 
	C686.269531,173.835327 639.081482,142.989716 585.387268,120.229698 
M456.462708,285.037018 
	C467.633423,296.249878 478.782104,307.484833 489.979126,318.671356 
	C519.089722,347.754547 549.172668,375.859924 577.463867,405.767883 
	C592.006836,421.141968 606.224609,436.804199 620.004944,452.866699 
	C622.945129,456.293793 629.139832,456.334167 632.954407,452.835571 
	C636.337524,449.732574 632.886597,447.327515 631.386780,445.169128 
	C615.205444,421.882965 597.223938,400.014160 578.634216,378.630249 
	C577.251587,377.039795 575.097046,375.793549 575.260071,372.034515 
	C583.148010,378.881378 590.251648,385.100800 597.415161,391.250488 
	C604.493469,397.326935 611.572083,403.405701 618.761414,409.349335 
	C626.079163,415.399048 633.472656,421.360962 640.942566,427.221558 
	C648.229431,432.938538 655.474182,438.743835 663.800659,442.987030 
	C603.028015,352.924713 519.839661,290.498505 421.950684,246.098007 
	C432.218445,259.926117 444.141174,272.186310 456.462708,285.037018 
M485.622986,385.890930 
	C509.637024,413.604218 535.438965,439.663849 560.154663,466.719238 
	C565.965576,473.080261 570.783447,473.500885 577.733948,470.616943 
	C581.168213,469.191986 582.144714,467.575562 580.429810,464.259460 
	C578.255249,460.054321 576.225647,455.774200 574.133545,451.526428 
	C574.471191,451.235077 574.808777,450.943726 575.146423,450.652374 
	C578.569031,454.075073 581.990051,457.499329 585.414612,460.920105 
	C591.388611,466.887604 594.406616,467.129120 602.844055,461.522308 
	C540.421692,389.817780 469.362061,326.665558 405.547455,256.527161 
	C409.988770,269.854797 415.909821,282.476562 422.265778,294.886780 
	C439.155426,327.864349 460.888855,357.495300 485.622986,385.890930 
M518.850403,220.460602 
	C538.438904,225.376801 557.499878,231.894363 575.999207,239.949768 
	C638.085693,266.984894 690.602722,306.240662 730.050110,361.847168 
	C757.115356,399.999237 774.018982,442.300812 780.446472,488.701630 
	C781.345093,495.189087 782.058228,501.702240 782.934204,508.829620 
	C785.152588,505.245392 785.175232,505.086090 785.671936,501.923767 
	C788.088013,486.541412 786.235840,471.413422 782.992798,456.366241 
	C774.394165,416.469940 757.220703,380.434692 733.008423,347.813568 
	C690.845886,291.007965 635.719177,251.192764 570.170837,225.439301 
	C536.998596,212.406189 502.611450,205.236649 466.856079,205.470062 
	C459.962799,205.515060 453.073608,206.187271 446.182526,206.570129 
	C446.152252,207.084915 446.122009,207.599701 446.091736,208.114487 
	C470.374207,210.527985 494.477295,213.936050 518.850403,220.460602 
M614.549133,197.118530 
	C571.841736,184.506149 528.549438,183.280609 484.831512,190.246002 
	C504.899078,191.932922 524.964783,193.553482 544.817200,196.982895 
	C602.321899,206.916550 655.033813,228.672180 703.109192,261.671387 
	C714.230835,269.305328 725.049438,277.379852 736.070190,285.162842 
	C737.750610,286.349579 739.694458,288.152222 741.927246,286.451843 
	C744.294189,284.649384 743.173035,282.138824 742.462708,279.990692 
	C740.792236,274.939301 737.281311,271.088623 733.584045,267.462250 
	C699.901062,234.425156 660.729004,210.619904 614.549133,197.118530 
M232.249451,297.725189 
	C231.573914,315.124725 231.602188,332.487610 234.704803,351.190094 
	C235.534592,349.074738 235.869125,348.368561 236.093430,347.628937 
	C244.489838,319.943939 256.318726,293.732178 270.149261,268.385803 
	C286.987061,237.528244 305.322144,207.554474 323.760315,177.641174 
	C324.791565,175.968109 326.606079,174.373062 325.710358,172.001495 
	C323.717224,171.698761 322.594177,172.811340 321.401367,173.654404 
	C291.637695,194.690735 266.504608,220.121170 248.513550,252.021240 
	C240.655594,265.954254 234.149689,280.582672 232.249451,297.725189 
M370.158722,882.656250 
	C372.109955,880.842468 373.961823,878.905334 376.031158,877.238220 
	C382.080017,872.365234 386.442444,872.675293 391.666290,878.346558 
	C393.807129,880.670898 395.787994,883.149841 397.747131,885.632996 
	C405.735016,895.757446 415.363251,904.048096 426.582947,911.851624 
	C425.393066,905.349915 423.306274,899.994202 421.071594,894.687561 
	C414.495544,879.071838 406.793396,863.901123 404.207275,846.819397 
	C402.756653,837.237732 402.952820,827.575012 401.787872,818.002136 
	C401.569489,816.207947 401.797821,814.339600 399.902008,813.145142 
	C393.496582,809.109192 384.427124,811.357910 381.089172,818.083923 
	C368.158051,844.140564 359.680023,871.834412 351.378204,899.583862 
	C351.144684,900.364441 350.468109,901.410339 351.640594,902.487610 
	C357.661621,896.026917 363.658417,889.592163 370.158722,882.656250 
M284.334259,159.816986 
	C267.465729,179.009018 254.526627,200.446152 246.413620,225.284775 
	C248.682556,224.648834 249.368317,223.238083 250.213364,222.096039 
	C274.605774,189.130630 305.452942,163.655319 341.105011,143.768570 
	C345.404907,141.370087 348.975983,138.353897 351.811005,134.262238 
	C358.070496,125.228188 364.523834,116.328079 371.532623,107.844322 
	C372.378296,106.820717 373.933105,105.959457 373.257904,103.757462 
	C338.279602,113.683128 308.980011,132.376114 284.334259,159.816986 
M411.796997,510.241730 
	C410.646393,511.875488 409.487305,513.503296 408.346558,515.143921 
	C399.643860,527.659973 399.645050,527.660706 409.617340,539.573364 
	C413.629364,544.366028 414.236603,544.398010 417.955017,539.241394 
	C435.097900,515.468140 452.208374,491.671356 469.278564,467.845795 
	C470.177704,466.590851 471.740845,465.487640 471.066254,462.861481 
	C464.738983,461.689667 458.122894,462.020721 451.526398,461.873566 
	C447.427826,461.782135 444.707001,463.464722 442.409851,466.766998 
	C432.425476,481.120056 422.291748,495.369263 411.796997,510.241730 
M342.048065,628.633118 
	C343.317291,627.228333 345.590027,626.602051 345.589935,623.671326 
	C335.506042,619.004089 326.437988,613.100647 321.566772,602.068726 
	C316.409271,590.388428 324.271362,580.602722 325.481018,570.054321 
	C324.225708,569.312744 323.494690,569.849487 322.888397,570.347778 
	C315.458374,576.453735 307.298584,581.062317 297.738800,582.922180 
	C294.774353,583.498901 294.485962,585.354126 294.933624,588.153137 
	C297.173859,602.159851 301.394043,615.616577 305.847443,629.018555 
	C308.436371,636.809631 311.075134,644.584106 313.968994,653.191589 
	C316.609222,649.483948 318.382599,646.409363 321.109528,644.216797 
	C323.954498,641.929321 326.908966,639.760315 329.942871,637.729736 
	C333.956604,635.043335 337.924744,632.313782 342.048065,628.633118 
M244.590836,535.984253 
	C246.311386,539.994995 246.774139,544.631775 250.738571,548.462402 
	C269.771667,522.041748 288.546143,495.980103 307.320618,469.918457 
	C307.083099,469.331696 306.845612,468.744904 306.608093,468.158112 
	C301.712128,468.158112 296.810699,468.300049 291.922058,468.110687 
	C288.367035,467.972992 286.051147,469.417389 284.040527,472.277039 
	C271.310089,490.383270 258.507965,508.439758 245.607101,526.424866 
	C243.543671,529.301453 242.946259,532.039856 244.590836,535.984253 
M504.890991,460.469421 
	C512.419861,464.700470 517.752258,470.886597 521.213623,478.754181 
	C522.012573,480.570251 522.623840,482.929901 524.778748,483.278778 
	C531.951294,484.440002 538.758972,483.261719 545.039612,479.746674 
	C544.618591,477.195923 543.086365,476.045044 541.866394,474.733459 
	C533.818604,466.082001 525.596619,457.588318 517.704956,448.797638 
	C514.056946,444.734100 509.703827,442.484131 504.515442,441.369385 
	C488.381958,437.902985 472.484497,438.411652 456.849579,443.982422 
	C450.605469,446.207214 444.034637,447.582001 437.930115,450.852783 
	C445.954071,450.852783 453.606720,450.579651 461.233063,450.910950 
	C476.062012,451.555176 490.822723,452.787842 504.890991,460.469421 
M663.158813,557.939392 
	C663.941223,558.681091 664.465698,559.963196 666.022705,559.267334 
	C666.266479,556.623596 664.860779,554.500671 663.818298,552.283264 
	C651.634644,526.368652 635.676941,502.852600 618.036499,480.416534 
	C613.049438,474.073761 610.129883,473.943970 602.576599,479.993439 
	C623.929077,504.806854 643.928589,530.678223 663.158813,557.939392 
M451.313324,521.846191 
	C464.354645,503.544098 477.395935,485.242004 490.425720,466.956085 
	C485.652618,463.390594 483.084167,464.700317 480.535461,468.383820 
	C473.156677,479.047943 465.505096,489.523132 457.972748,500.081177 
	C446.964142,515.512024 435.921783,530.919250 425.013275,546.420532 
	C423.438934,548.657654 420.540070,551.361328 424.545258,554.004395 
	C428.302673,556.483887 429.106873,552.515991 430.435303,550.728638 
	C437.378479,541.386658 444.098206,531.878601 451.313324,521.846191 
M305.703400,489.146790 
	C290.260529,510.634277 274.814331,532.119385 259.384338,553.616150 
	C258.612885,554.690918 257.808319,555.797791 257.326996,557.011719 
	C256.654236,558.708252 257.787109,559.839111 259.030457,560.777710 
	C260.432922,561.836426 261.536346,561.142029 262.480927,560.046509 
	C263.240082,559.166077 263.950409,558.239136 264.629700,557.294922 
	C283.777802,530.681335 302.925690,504.067688 322.043488,477.432434 
	C323.058868,476.017792 324.617493,474.781860 324.295105,472.648132 
	C320.986084,470.404694 318.507294,471.121735 316.303772,474.363861 
	C313.030792,479.179474 309.536346,483.844543 305.703400,489.146790 
M376.189148,479.693848 
	C377.787811,480.101135 379.479889,480.838470 380.665985,478.971405 
	C382.946136,475.382172 385.169495,471.756866 387.936096,467.311432 
	C373.286469,467.090149 359.403778,467.351776 344.860199,468.792877 
	C346.778168,471.733246 348.630981,473.890930 349.704926,476.384094 
	C351.222931,479.908173 353.443054,480.529114 356.814545,479.420685 
	C363.007874,477.384613 369.235565,477.812805 376.189148,479.693848 
M304.021667,456.628540 
	C304.615295,456.524292 305.208923,456.420044 306.847107,456.132385 
	C302.047943,453.579865 297.894501,452.207855 293.615112,451.198242 
	C291.212738,450.631500 288.772827,449.946899 286.334839,449.882294 
	C283.636566,449.810791 281.413452,451.093079 281.317749,454.204620 
	C281.205658,457.847595 284.071320,456.744751 285.981781,456.760284 
	C291.763916,456.807281 297.547424,456.691956 304.021667,456.628540 
z"/>
<path fill="#000000" opacity="1.000000" stroke="none" 
	d="
M399.272247,610.783020 
	C413.591278,603.823181 415.017151,592.522095 409.485962,578.669861 
	C417.300568,582.109131 419.942291,588.352051 420.923920,595.581421 
	C422.490234,607.116516 412.763306,617.620178 401.733246,616.340088 
	C399.190552,616.045044 396.359619,615.597961 398.651123,611.417542 
	C399.001923,611.068420 399.272247,610.783020 399.272247,610.783020 
z"/>
<path fill="#000000" opacity="1.000000" stroke="none" 
	d="
M398.868347,611.212646 
	C396.850006,612.061707 394.909668,612.728577 392.893799,612.357056 
	C385.150360,610.929443 377.482208,610.121887 369.816803,612.994751 
	C368.140839,613.622925 365.981079,612.981567 364.985565,611.229675 
	C363.827332,609.191406 364.962860,607.415955 366.388702,605.856262 
	C372.577057,599.087036 389.449554,597.364624 396.665619,602.813110 
	C399.088989,604.642944 400.621277,606.886658 399.338074,610.451294 
	C399.272247,610.783020 399.001923,611.068420 398.868347,611.212646 
z"/>
</svg>